<svg width="277" height="190" viewBox="0 0 277 190" fill="none" xmlns="http://www.w3.org/2000/svg">
<path d="M225.913 83.9066C220.299 89.38 205.326 93.1375 198.541 94.332H179.942H152.57H124.145H96.9488H69.7522H41.6782C44.2844 122.469 64.025 176.391 122.138 166.984C194.779 155.225 246.657 73.2619 244.299 67.7234C245.422 53.1278 233.4 39.1643 226.966 34.0602C212.929 47.8738 220.416 73.0468 225.913 83.9066Z" fill="#1D1A3A"/>
<path d="M207.109 118.058C154.209 166.469 63.4792 195.323 51.9375 118.058H207.109Z" fill="#2B2552"/>
<ellipse cx="105.478" cy="139.859" rx="6.41204" ry="8.01505" fill="white"/>
<path fill-rule="evenodd" clip-rule="evenodd" d="M106.433 134.539C106.234 134.97 106.119 135.474 106.119 136.012C106.119 137.605 107.124 138.897 108.363 138.897C108.875 138.897 109.347 138.677 109.725 138.306C109.881 138.893 109.966 139.524 109.966 140.179C109.966 143.367 107.957 145.95 105.478 145.95C102.999 145.95 100.99 143.367 100.99 140.179C100.99 136.992 102.999 134.409 105.478 134.409C105.806 134.409 106.125 134.454 106.433 134.539Z" fill="#3A4D58"/>
<path d="M274.115 70.6088C263.411 61.1777 249.069 64.8558 243.016 67.7234C213.2 148.194 43.3321 225.78 51.2963 93.9839H36.778C35.6234 112.317 38.6538 135.032 49.8394 153.536C63.3425 175.874 88.73 192.074 132.986 187.021C197.719 179.629 230.564 120.019 238.528 91.7685C262.252 94.0127 271.885 78.8929 274.115 70.6088Z" fill="#48408B"/>
<path d="M277 118.058H0C15.6454 115.75 18.0606 107.905 17.3125 104.272C32.1884 121.456 52.7924 113.569 61.235 107.478C76.3032 121.905 111.249 113.249 115.096 105.554C133.563 124.021 155.812 113.569 162.225 105.554C178.896 121.905 212.88 114.852 215.765 107.799C240.644 121.649 255.627 111.218 260.008 104.272C258.469 113.249 270.695 117.203 277 118.058Z" fill="#FFE566"/>
<path d="M94.5775 151.08C86.2419 154.927 62.5174 155.461 50.9757 154.286C58.6701 167.11 79.5093 190.834 126.638 186.667C109.71 184.102 98.6385 161.66 94.5775 151.08Z" fill="white"/>
<path d="M130.88 187.018C132.018 186.915 133.168 186.798 134.332 186.667C133.163 186.884 132.012 186.998 130.88 187.018C88.7766 190.835 64.9056 175.526 51.2963 154.286C57.9191 154.466 70.1651 155.145 70.853 154.713C79.0935 161.008 89.8619 164.295 101.31 164.866C105.91 173.265 116.882 187.271 130.88 187.018Z" fill="#BFDBDF"/>
<path fill-rule="evenodd" clip-rule="evenodd" d="M184.025 93.3715V61.6319H159.018V32.1366V2H133.05V32.1366H108.363H83.3565V61.6319H57.7083V93.3715H83.3565H108.203H133.05H159.018H184.025Z" fill="#D395FF"/>
<path d="M57.7083 93.3715H36.5486C35.3866 111.819 38.4363 134.675 49.6933 153.294M57.7083 93.3715V61.6319H83.3565M57.7083 93.3715H83.3565M184.025 93.3715H201.017C207.216 92.196 220.895 88.4984 226.024 83.1123C221.002 72.4255 214.162 47.6537 226.986 34.0602C232.864 39.0829 244.683 52.7192 243.657 67.0822C249.749 64.1968 264.304 60.7984 275.076 70.2882C272.832 78.6238 262.445 94.7181 238.848 92.4097C230.833 120.836 198.517 179.549 133.37 186.987C88.8319 192.072 63.2825 175.771 49.6933 153.294M184.025 93.3715V61.6319H159.018M184.025 93.3715H159.018M159.018 93.3715H133.05M159.018 93.3715V61.6319M133.05 93.3715H108.203M133.05 93.3715V32.1366M83.3565 93.3715H108.203M83.3565 93.3715V61.6319M159.018 32.1366V2H133.05V32.1366M159.018 32.1366V61.6319M159.018 32.1366H133.05M108.363 32.1366H83.3565V61.6319M108.363 32.1366L108.203 93.3715M108.363 32.1366H133.05M63.1585 67.0822V87.6007M66.3646 67.0822V87.6007M69.5706 67.0822V87.6007M72.7766 67.0822V87.6007M75.9826 67.0822V87.6007M79.1886 67.0822V87.6007M88.1655 67.0822V87.6007M91.3715 67.0822V87.6007M94.5775 67.0822V87.6007M97.7835 67.0822V87.6007M100.99 67.0822V87.6007M104.196 67.0822V87.6007M112.852 67.0822V87.6007M116.058 67.0822V87.6007M119.264 67.0822V87.6007M122.47 67.0822V87.6007M125.676 67.0822V87.6007M128.882 67.0822V87.6007M137.859 67.0822V87.6007M141.065 67.0822V87.6007M144.271 67.0822V87.6007M147.477 67.0822V87.6007M150.683 67.0822V87.6007M153.889 67.0822V87.6007M162.866 67.0822V87.6007M166.072 67.0822V87.6007M169.278 67.0822V87.6007M172.484 67.0822V87.6007M175.69 67.0822V87.6007M178.896 67.0822V87.6007M88.1655 37.2662V57.7847M91.3715 37.2662V57.7847M94.5775 37.2662V57.7847M97.7835 37.2662V57.7847M100.99 37.2662V57.7847M104.196 37.2662V57.7847M112.852 37.2662V57.7847M116.058 37.2662V57.7847M119.264 37.2662V57.7847M122.47 37.2662V57.7847M125.676 37.2662V57.7847M128.882 37.2662V57.7847M137.859 37.2662V57.7847M141.065 37.2662V57.7847M144.271 37.2662V57.7847M147.477 37.2662V57.7847M150.683 37.2662V57.7847M153.889 37.2662V57.7847M137.859 7.45023V27.9687M141.065 7.45023V27.9687M144.271 7.45023V27.9687M147.477 7.45023V27.9687M150.683 7.45023V27.9687M153.889 7.45023V27.9687M49.6933 153.294C61.0212 154.266 87.2678 154.542 96.5011 149.156M83.3565 61.6319H159.018" stroke="#374A53" stroke-width="3" stroke-linecap="round" stroke-linejoin="round"/>
</svg>
