<svg width="100" height="100" viewBox="0 0 100 100" fill="none" xmlns="http://www.w3.org/2000/svg">
<path d="M24 0H100V76C100 89.255 89.255 100 76 100H0V24C0 10.745 10.745 0 24 0Z" fill="#D395FF"/>
<path d="M37.43 61.34C37.9604 62.8272 38.8305 64.1702 39.971 65.2621C41.1115 66.3541 42.4911 67.1648 44 67.63L48.72 69.14C51.4309 69.9176 54.2556 70.222 57.07 70.04C57.7148 70.0166 58.3568 70.1363 58.9498 70.3905C59.5428 70.6446 60.0722 71.027 60.5 71.51C61.8695 73.2217 63.6818 74.5255 65.74 75.28L67.74 76.36C67.9678 76.5271 68.2435 76.6161 68.526 76.6137C68.8084 76.6113 69.0826 76.5176 69.3075 76.3467C69.5324 76.1757 69.696 75.9367 69.774 75.6652C69.8519 75.3936 69.84 75.1042 69.74 74.84L68.41 71.5C67.5107 69.2927 65.8104 67.5067 63.65 66.5L63 66.17C65.6002 64.5858 67.6283 62.2145 68.79 59.4L69.53 57.61C69.6367 57.35 69.6603 57.0634 69.5974 56.7894C69.5346 56.5155 69.3884 56.2678 69.179 56.0804C68.9696 55.8929 68.7073 55.7749 68.4281 55.7426C68.149 55.7103 67.8666 55.7653 67.62 55.9L64.44 57.65C63.3581 58.2078 62.4006 58.9793 61.6254 59.9178C60.8502 60.8562 60.2734 61.9422 59.93 63.11C59.7739 63.7112 59.4764 64.2664 59.0623 64.7294C58.6482 65.1924 58.1296 65.5498 57.5495 65.7719C56.9694 65.9939 56.3446 66.0742 55.7273 66.0061C55.1099 65.9379 54.5177 65.7233 54 65.38L51.13 63.47C50.4922 63.0595 49.9637 62.5001 49.59 61.84C49.1609 61.0618 48.9647 60.1766 49.025 59.29C49.0853 58.4034 49.3995 57.5529 49.93 56.84L52.12 53.92C54.0332 51.3692 56.2992 49.1032 58.85 47.19L60.85 45.68C62.0689 44.7641 63.0225 43.5406 63.6129 42.1348C64.2033 40.7291 64.4094 39.1916 64.21 37.68C64.1934 37.5533 64.1455 37.4327 64.0707 37.3291C63.9958 37.2255 63.8964 37.1422 63.7813 37.0866C63.6662 37.0311 63.5391 37.005 63.4114 37.0109C63.2838 37.0167 63.1595 37.0542 63.05 37.12L62 37.75C61.6427 37.9777 61.3079 38.2389 61 38.53L59.2 40.11C59.0676 40.2306 58.9053 40.3135 58.73 40.35L58.24 40.46C58.0272 40.5241 57.7992 40.5154 57.5919 40.4355C57.3846 40.3555 57.2098 40.2088 57.0952 40.0185C56.9805 39.8281 56.9325 39.605 56.9587 39.3844C56.985 39.1638 57.0839 38.9581 57.24 38.8L58.1 37.8C58.7263 37.058 59.4573 36.4113 60.27 35.88L63.59 33.71L64.42 33.18L64.66 33.02C66.1527 32.0547 67.2492 30.5856 67.75 28.88L69.08 24.35C69.1745 24.0843 69.2038 23.7998 69.1655 23.5204C69.1271 23.241 69.0221 22.9749 68.8594 22.7446C68.6967 22.5142 68.481 22.3263 68.2305 22.1968C67.98 22.0672 67.702 21.9997 67.42 22C67.1454 22.0008 66.8749 22.0659 66.63 22.19L57 27C52.9974 29.0013 49.3438 31.6351 46.18 34.8L42.66 38.32C41.6734 39.4383 40.4117 40.2794 39 40.76L37.75 41.16C35.9328 41.7491 34.2164 42.6124 32.66 43.72C31.2388 44.7304 29.9635 45.9317 28.87 47.29C28.68 47.5345 28.5612 47.8267 28.5269 48.1345C28.4925 48.4422 28.5438 48.7535 28.6752 49.0339C28.8066 49.3142 29.013 49.5529 29.2715 49.7234C29.5299 49.8939 29.8305 49.9896 30.14 50H33.46C33.8452 49.9957 34.2271 50.0722 34.581 50.2244C34.9349 50.3766 35.253 50.6013 35.5149 50.8839C35.7768 51.1664 35.9766 51.5007 36.1014 51.8652C36.2263 52.2296 36.2735 52.6162 36.24 53C36.0985 55.8306 36.5025 58.662 37.43 61.34V61.34Z" fill="white"/>
<path d="M55.73 52.24L53.87 54.56C53.725 54.7417 53.6379 54.9628 53.6201 55.1946C53.6022 55.4264 53.6545 55.6582 53.77 55.86L54.9 57.86C54.9687 57.981 55.0256 58.1082 55.07 58.24L55.16 58.52C55.2306 58.7232 55.3603 58.9008 55.5324 59.0298C55.7046 59.1589 55.9114 59.2336 56.1263 59.2443C56.3412 59.2551 56.5544 59.2014 56.7386 59.0901C56.9227 58.9789 57.0695 58.8152 57.16 58.62L57.5 57.84C57.7614 57.246 57.8964 56.604 57.8964 55.955C57.8964 55.306 57.7614 54.664 57.5 54.07L56.76 52.37C56.7131 52.2792 56.6448 52.2012 56.5611 52.1427C56.4773 52.0842 56.3806 52.0469 56.2792 52.0341C56.1778 52.0214 56.0749 52.0334 55.9792 52.0693C55.8835 52.1051 55.798 52.1637 55.73 52.24V52.24Z" fill="white"/>
</svg>
